# xmcd
# 
# Track frame offsets:
#	150
#	16926
#	35816
#	51355
#	64827
#	89543
#	105281
#	124513
#	138230
#	151408
#	164912
#	183631
#	203289
#	226329
#	240655
#	257941
#	272244
#
# Disc length: 3899 seconds
#
# Revision: 1
# Processed by: cddbd v1.4PL0 Copyright (c) Steve Scherf et al.
# Submitted via: Audio-CD-Archiv 2.10.441
#
DISCID=ee0f3911
DTITLE=ZZ Top - Mescalero
DYEAR=1900
DGENRE=blues
TTITLE0=Mescalero
TTITLE1=Two Ways To Play
TTITLE2=Alley - Gator
TTITLE3=Buck Nekkid
TTITLE4=Goin`  So Good
TTITLE5=Me So Stupid
TTITLE6=Piece
TTITLE7=Punk Ass Boyfriend
TTITLE8=Stackin`Paper
TTITLE9=What Would You Do
TTITLE10=What It Is Kid
TTITLE11=Que Lastima
TTITLE12=Tramp
TTITLE13=Crunchy
TTITLE14=Dusted
TTITLE15=Liquor
TTITLE16=Bonus Track
EXTD=
EXTT0=
EXTT1=
EXTT2=
EXTT3=
EXTT4=
EXTT5=
EXTT6=
EXTT7=
EXTT8=
EXTT9=
EXTT10=
EXTT11=
EXTT12=
EXTT13=
EXTT14=
EXTT15=
EXTT16=
PLAYORDER=
